# xmcd CD database file
#
# Track frame offsets:
#	150
#	19060
#	33037
#	56147
#	77522
#	93180
#	109587
#	122982
#	144155
#	164605
#
# Disc length: 2247 seconds
#
# Revision: 0
# Processed by: cddbd v1.5PL3 Copyright (c) Steve Scherf et al.
# Submitted via: CDex 1.50
#
DISCID=7508c50a
DTITLE=Yoninbayashi - Neo-N
DYEAR=1979
DGENRE=Progressive Rock
TTITLE0=Nocto-Vision For You
TTITLE1=Nameless
TTITLE2=Nervous Narration
TTITLE3=Notion-Noise
TTITLE4=9th Night
TTITLE5=Neo Polis
TTITLE6=Nile Green
TTITLE7=N.P.K(4:4:2)
TTITLE8=Natural
TTITLE9=Neo Nature 450
EXTD=YEAR: 1979
EXTT0=
EXTT1=
EXTT2=
EXTT3=
EXTT4=
EXTT5=
EXTT6=
EXTT7=
EXTT8=
EXTT9=
PLAYORDER=
